<?xml version="1.0" encoding="UTF-8"?><svg xmlns="http://www.w3.org/2000/svg" xmlns:xlink="http://www.w3.org/1999/xlink" height="390.6" preserveAspectRatio="xMidYMid meet" version="1.0" viewBox="0.0 -6.8 503.2 390.6" width="503.2" zoomAndPan="magnify"><g id="change1_1"><path d="M115.7,240.5l60,138.4h-17.1l-42.8-93l-2.6,0.9l25.7,92h-15.3L99,288.1L50.1,379H36.5l55.2-107.4 c0,0-54.7-154-55.2-155.4C36,114.9,0,12.2,0,12.2l19.4-6.3l37.8,102.2L115.7,240.5z" fill="#C7745E"/></g><g id="change2_1"><path d="M93,105.7l60.7,176.7l-60,25.1l-76.4-207l6.3-2.6L93,105.7z M332.2,68.5c2.4,3.3,5.2,6.5,6.2,10.5 c0.8,3.4,0.2,6.9-0.4,10.4c-1.1,5.9-2.2,11.8-3.3,17.8c-1.7,9.5-3.7,19.4-9.6,27c-6.4,8.3-17.1,13.4-20.7,23.2 c-2.5,6.7-0.7,14.8,4.4,19.9c3.1,3.1,7.2,5.1,10.6,8.1c7.7,6.9,10.2,18.1,17.7,25.3c6.5,6.2,15.8,8.5,24.8,9c9,0.6,18-0.2,26.9,1 c12.3,1.7,23.7,7.4,35.2,12.1c11.5,4.7,24,8.6,36.3,6.7s24.2-11.3,25.3-23.7c0.3-3.8-0.3-7.7,1.1-11.2c1.7-4.3,6-6.8,8.9-10.3 c7.6-9.2,4.4-23.8-3.3-32.9c-4.4-5.3-10.3-9.9-12.2-16.5c-2.1-7.3,1.4-15.3-0.3-22.8c-1.4-6-6-10.9-11.3-13.9 c-5.4-3-11.7-4.5-17.7-5.5c-18.9-20.4-8-84.6-53.6-98.1c-38.4-11.4-76.8,11.3-73.8,29.5C325.3,46.3,325.1,58.3,332.2,68.5z" fill="#F5D6C3"/></g><g id="change3_1"><path d="M450.9,181.8c7.1,21.3,10.3,96.9,10.3,96.9c-7.5,2.5-16.2,7.7-16.2,7.7s13.8,44-2.8,89.4 c-65.7,8-148.3,2.8-148.3,2.8c1.2-7.8-16.2-31.7-0.3-87.7c-0.6-17.8-6.6-19.9,0.7-40.6l-14,5.5l-2.5-8.7l-19.6-10.9l5.7-37.1l-1-3.4 c0,0,32-24.2,51.2-37s42.5-15.4,47.9-17.5c0,0,21.8,4.2,39.5-1.1c12.1,8.3,24.8,8.8,33.8,16.2C449,167.6,450.9,181.8,450.9,181.8z" fill="#D76249"/></g><g id="change4_1"><path d="M277.8,247.1c0,0-30.1,7.9-47,3.2c-50.6-14.1-75.9-46.5-85.6-51.7c-9.7-5.2-15.9-17.1-15.9-17.1l-5-2.2 c-6,7.8-10.2,3.9-10.2,3.9c-2.1,2.9-6.8,2.9-7.3,1s1.8-5,1.8-5s-3.7-1-3.4-3.6c0.3-2.6,6.5-5.5,6.5-5.5s-0.5-2.4,0-4.7 c0.5-2.4,14.6-13.1,18-14.9c3.4-1.8,20.6,4.7,23,7.6c2.4,2.9,6.7,20.6,10.5,21.7c51.4,15.5,70.4,31.1,75.5,28.5 c17.5-8.9,25.1-9.2,25.1-9.2L277.8,247.1z M256.3,334.2c-0.6,2.7,15,23.5,21.5,26.1c6.5,2.5,93.3,4.6,121.7-0.9 c28.4-5.5,41.5-12.6,46.3-19c11.4-15.3,10-60.3,10-60.3l-59.5,2.8c0,0-0.5,20.4,0.7,31.4c-1.3,1.2-43.3,25-63,23.1 C314.3,335.6,256.3,334.2,256.3,334.2z" fill="#EEAA94"/></g><g id="change2_2"><path d="M295.4,300.8c78.5,12.8,88.1,28.4,77.6,31.4c-10.6,2.9-36.8-10.2-38.6-6.2c-1.8,4,13.9,10.9,11.3,15.3 s-40.8,3.6-94.1-8s-68.7-24-66.3-32C187.7,293.3,217,288,295.4,300.8z" fill="#F5D6C3"/></g><g id="change3_2"><path d="M244.3,298.4c2-1.5,4.4-1.2,6.6-0.3c3.6,1.5,5.5,3.1,9.6,3.3c2,0.1,4.1,0.1,5.9,1s3.3,2.8,2.9,4.8 c-0.4,2.3-2.8,3.6-5.1,3.9c-2.3,0.3-4.6-0.2-6.9,0.1c-2.1,0.2-4,1.1-6,1.6s-4.3,0.7-6.1-0.2C240.5,310,240.1,301.7,244.3,298.4z" fill="#D76249"/></g><g id="change4_2"><path d="M310.2,328.9c-4.9,3.6-18.6,0-18.6,0s-15.4-11.7-13.9-18.6S310.2,328.9,310.2,328.9z M396.6,127.9 c1.3-12.1-6.2-15.9-11.6-22.1c-3.5-4-3.8-10.8-1.9-15.8c7.8-21.1-5.2-27.2-9.5-23.5c-4.3,3.7-0.6,12.2-0.6,12.2 c-21.1-0.9-43.1-26.3-47.3-48.6c-5.5,2.7-10,59.4-2.7,81.3c6.7,20.1,28.9,22.5,28.9,22.5s1.5,10.7,4.4,18.8 c2.9,8,44.2,3.7,45.5-12.6C396.4,135.8,396.3,130.4,396.6,127.9z" fill="#EEAA94"/></g><g id="change2_3"><path d="M124.3,179.3c0,0-3-0.6-4.1-1.5c-1.2,1.5-6.2,5.3-6.2,5.3s3.5-5,4.7-6.5c-0.3-0.3-0.7-0.6-1-0.9 c-1.7,1.4-9,3.6-9,3.6s5.7-3.5,7.7-5c-0.6-0.7-1.1-1.4-1.5-2L124.3,179.3z M134.1,158.9l-0.6-1l-0.9,0.7c-4.3,3.4-9.8,9.3-9.8,9.3 c0.5,0,1.8-0.5,10.1-7.1c1,1.4,3.2,3.9,6.5,4.7C139.6,165.5,134.1,158.9,134.1,158.9z M265.1,341.3c-2.8-1.2-6.9-2.7-6.9-2.7 s3.1,3.1,5.9,4.4c4.4,2,9.2,3.8,9.6,3.9C273.7,346.9,268.5,342.9,265.1,341.3z M265.6,348.9c0,0,7.8,5.4,7.9,5.5 c0,0-1.1-2.6-3.4-3.9C268.9,349.8,265.6,348.9,265.6,348.9z M303.6,231.7c2.7-8.6,3.6-17.6,3.6-17.6c-0.4,1.1-9.8,35.1-9.8,35.1 S301.3,238.8,303.6,231.7z M391,242.6c-0.1-11.9,1.2-37.1,1.2-37.1c-7,34-0.1,77.5,0,77.9C392.1,283.4,391.1,264.6,391,242.6z" fill="#F5D6C3"/></g><g id="change1_2"><path d="M87.8,163.2c0.7,0,87.6,9.4,90.4,9.9c2.8,0.5,2.7,2.3-1,2.5s-43.2-2.7-43.2-2.7s-9.1-5.3-14.3-4.7 c-5.2,0.7-4,3.5-4,3.5l-27.9-0.2C87.8,171.5,87.8,163.2,87.8,163.2z M269,330.3c1,0.1,2.2,0.1,2.8-0.7c0.6-0.8,0.1-2-0.4-2.9 c-0.7-1.2-1.5-2.3-2.3-3.3s-1.7-2-2.9-2.6c-0.9-0.4-2-0.6-3-0.7c-1.2-0.1-2.4-0.3-3.5-0.4c-4.2-0.5-9.7,2.4-5,6.4 C258.5,329.4,264.3,329.8,269,330.3z" fill="#C7745E"/></g><g id="change5_1"><path d="M87.8,163.2v8.4c-22.9,5.9-27.2-10.4-27.2-10.4s4.3,2.5,9.9-0.1C76,158.3,84,158,87.8,163.2z M227.3,308.4 c-3.7-3.2-10.2-5-15-4.1c-4.2,0.7-6.9,6.2-2.9,9.2c1.3,1,3,1.5,4.6,1.8c4.5,0.8,9.5,0.3,13.4,2.7c0.9,0.5,2.1,1.2,2.8,0.5 c0.3-0.2,0.4-0.6,0.5-0.9C231.5,314.3,229.9,310.6,227.3,308.4z M391.3,59.3C386.9,4.1,362.7,0,362.7,0c-6.3,1.1-20.6,6.7-20.6,6.7 l-1.7,3.7c20.5-1.7,28.8,32.7,31.4,47.2c-6.9,3.5-11.7,11.3-11.7,20.2c0,12.3,9,22.3,20.1,22.3s20.1-10,20.1-22.3 C400.3,70.1,396.8,63.3,391.3,59.3z" fill="#918658"/></g></svg>