<?xml version="1.0" encoding="UTF-8"?><svg xmlns="http://www.w3.org/2000/svg" xmlns:xlink="http://www.w3.org/1999/xlink" height="500.0" preserveAspectRatio="xMidYMid meet" version="1.0" viewBox="0.0 0.0 644.6 500.0" width="644.6" zoomAndPan="magnify"><defs><clipPath id="a"><path d="M 102 155 L 644.601562 155 L 644.601562 283 L 102 283 Z M 102 155"/></clipPath></defs><g><g id="change1_1"><path d="M 525.601562 214.199219 C 522.199219 207.199219 519.398438 199 517.800781 189.601562 C 517 184.601562 516.601562 179.800781 516.601562 175.199219 L 516.601562 204.101562 C 519.5 206.898438 522.601562 210.300781 525.601562 214.199219 Z M 360.101562 253 C 359.699219 253.300781 359.300781 253.601562 358.898438 253.800781 C 359.300781 253.601562 359.699219 253.300781 360.101562 253 Z M 339.199219 255.199219 C 338.5 254.199219 337.800781 253 337.101562 251.601562 C 337.699219 252.898438 338.5 254.101562 339.199219 255.199219 Z M 337 251.398438 C 336.699219 250.699219 336.300781 250 336 249.300781 C 336.300781 250 336.601562 250.800781 337 251.398438 Z M 340.199219 256.699219 C 339.898438 256.300781 339.5 255.800781 339.199219 255.300781 C 339.601562 255.800781 339.898438 256.300781 340.199219 256.699219 Z M 336 249.199219 C 335.699219 248.5 335.5 247.898438 335.300781 247.300781 C 335.5 248 335.699219 248.601562 336 249.199219 Z M 296.898438 255.101562 C 298 253.300781 299 251.5 299.800781 249.800781 C 298.898438 251.800781 297.898438 253.5 296.898438 255.101562 Z M 299.898438 249.601562 C 300.101562 249.101562 300.300781 248.601562 300.5 248.199219 C 300.300781 248.699219 300.101562 249.101562 299.898438 249.601562 Z M 118.898438 194.699219 C 118.898438 193.199219 118.898438 191.699219 118.898438 190.199219 C 118 193.300781 116.898438 196.300781 115.800781 199.101562 C 116.300781 198.300781 116.800781 197.601562 117.398438 196.898438 C 117.800781 196.199219 118.300781 195.5 118.898438 194.699219 C 118.800781 194.800781 118.800781 194.800781 118.898438 194.699219 Z M 644.601562 171.300781 C 632.5 182.800781 624.300781 194 618.800781 203.199219 C 600.601562 233 602.199219 253.601562 583 269.601562 C 573.101562 277.898438 562.101562 281.101562 555 282.5 C 554.699219 282.5 554.5 282.601562 554.199219 282.601562 C 551.800781 275.101562 548.601562 261.800781 551.199219 245.699219 C 552 240.5 553.300781 235.601562 555 231.101562 C 551.699219 236.300781 548.699219 240.199219 546.5 242.800781 C 546.398438 242.699219 546.398438 242.699219 546.300781 242.601562 C 543.699219 240.101562 539.699219 236 535.398438 230.300781 C 538.101562 236.199219 540.199219 242.800781 541.300781 250.101562 C 543.699219 265.601562 540.898438 278.5 538.5 286.101562 C 538.398438 286.398438 538.300781 286.699219 538.199219 287 C 531.101562 285.601562 519.699219 282.5 509.398438 273.898438 C 498.398438 264.699219 494.199219 254 489.199219 241 C 448.800781 241 408.398438 241 368.101562 241 C 367.5 243.101562 365.699219 248.800781 360 253.101562 C 360.800781 252.5 361.5 251.898438 362.199219 251.199219 C 370.800781 254.199219 383.398438 260.199219 390.199219 272.601562 C 399.699219 289.800781 392.601562 309.699219 388.101562 323.699219 C 382.101562 342.398438 375.199219 367.398438 369.101562 399.898438 C 374.199219 397.101562 409.898438 377.601562 439.398438 363.199219 C 442.800781 361.5 449.398438 358.398438 456.398438 360.5 C 465.199219 363.101562 471.898438 372.898438 472.601562 381.300781 C 473.300781 388.800781 469.101562 395.199219 440.898438 418 L 530.199219 418 C 547.398438 445 564.5 472.101562 581.601562 499.199219 C 400.800781 498.5 220.101562 497.800781 39.300781 497.101562 C 59.199219 470.699219 79.101562 444.398438 99 418.101562 L 203.101562 418.101562 C 183 401.398438 175.398438 395.699219 175 384.898438 C 174.699219 377 178.300781 367.199219 185.300781 363.699219 C 191.5 360.601562 198.5 362.898438 202.898438 364.5 C 227 373.398438 254.300781 391.898438 266.398438 400.5 L 273.101562 383.398438 C 270.800781 377.101562 268.800781 371.601562 266.898438 366.398438 C 248.699219 315.601562 239.5 290.101562 251.398438 272.300781 C 259.300781 260.5 273.398438 255.898438 283.898438 254 C 283 253.5 282.101562 253 281.300781 252.398438 C 275.601562 248.398438 273.300781 243.101562 272.5 241.101562 C 230.398438 241.101562 188.300781 241.101562 146.300781 241.101562 C 143.5 245.800781 139.898438 250.101562 135.101562 254.101562 C 125.199219 262.398438 114.199219 265.601562 107.101562 267 C 106.800781 267 106.601562 267.101562 106.300781 267.101562 C 103.898438 259.601562 100.699219 246.300781 103.300781 230.199219 C 104.101562 225 105.398438 220.101562 107.101562 215.699219 C 103.800781 220.898438 100.800781 224.800781 98.597656 227.398438 C 98.5 227.300781 98.5 227.300781 98.398438 227.199219 C 95.800781 224.699219 91.800781 220.601562 87.5 214.800781 C 90.199219 220.699219 92.300781 227.300781 93.5 234.601562 C 95.898438 250.101562 93.097656 263 90.699219 270.601562 C 90.597656 270.898438 90.5 271.199219 90.398438 271.5 C 83.300781 270.101562 71.898438 267 61.597656 258.398438 C 42.398438 242.398438 44 221.800781 25.800781 192 C 20.199219 182.800781 12 171.601562 0 160.101562 C 9.800781 160.199219 33.398438 161.898438 56.097656 178.101562 C 59.597656 180.601562 69.097656 187.398438 77.800781 198.699219 C 74.398438 191.601562 71.5 183.398438 70 174.101562 C 62.699219 129 92.199219 96 96.097656 91.800781 C 99.398438 95.5 112.101562 110.398438 118.898438 132.898438 C 118.898438 88.898438 118.898438 44.898438 118.898438 0.898438 L 516.699219 0.898438 L 516.699219 174.601562 C 516.800781 137.300781 540.300781 111.101562 543.800781 107.300781 C 548.699219 112.800781 574.101562 142.601562 570.398438 185.601562 C 569.5 196.699219 566.699219 206.398438 563.398438 214.601562 C 572.800781 200.398438 584.601562 192 588.601562 189.101562 C 611.199219 173 634.699219 171.398438 644.601562 171.300781 Z M 548.800781 338.5 C 548.5 338.5 548.199219 338.5 547.898438 338.5 C 547.199219 338.5 546.5 338.5 545.800781 338.5 C 533.800781 338.699219 524.199219 341.398438 518.101562 343.601562 L 518.101562 396 C 522.199219 398.800781 530.898438 403.699219 542.898438 404.699219 C 559.699219 406 572 398.699219 576 396 L 576 343.5 C 570.398438 341.398438 561.898438 339.101562 551.5 338.5 C 550.5 338.5 549.699219 338.5 548.800781 338.5 Z M 95.199219 389.101562 C 83.199219 388.101562 74.597656 383.199219 70.5 380.398438 L 70.5 328 C 76.597656 325.800781 86.199219 323.101562 98.199219 322.898438 C 98.898438 322.898438 99.597656 322.898438 100.300781 322.898438 C 100.601562 322.898438 100.898438 322.898438 101.199219 322.898438 C 102.101562 322.898438 102.898438 322.898438 103.800781 323 C 114.199219 323.5 122.699219 325.898438 128.300781 328 L 128.300781 380.5 C 124.300781 383.101562 112 390.5 95.199219 389.101562" fill="#fff"/></g><g id="change2_1"><path d="M 543.699219 107.300781 C 540.199219 111.101562 516.601562 137.5 516.601562 174.898438 C 516.601562 179.601562 517 184.5 517.800781 189.601562 C 519.398438 198.898438 522.199219 207.101562 525.601562 214.199219 C 528.601562 220.5 532 225.898438 535.300781 230.300781 C 539.5 236 543.601562 240.101562 546.199219 242.601562 C 546.300781 242.699219 546.300781 242.699219 546.398438 242.800781 C 548.5 240.300781 551.601562 236.300781 554.898438 231.101562 C 557.699219 226.601562 560.699219 221.101562 563.300781 214.699219 C 566.601562 206.398438 569.300781 196.699219 570.300781 185.699219 C 574 142.601562 548.5 112.800781 543.699219 107.300781 Z M 122.699219 170.101562 C 122.101562 177.398438 120.699219 184.199219 118.800781 190.300781 C 117.898438 193.398438 116.800781 196.398438 115.699219 199.199219 C 113.101562 205.601562 110.101562 211.101562 107.300781 215.601562 C 104 220.800781 101 224.699219 98.800781 227.300781 C 98.699219 227.199219 98.699219 227.199219 98.597656 227.101562 C 96 224.601562 92 220.5 87.699219 214.699219 C 84.398438 210.300781 81 205 78 198.699219 C 74.597656 191.601562 71.699219 183.398438 70.199219 174.101562 C 62.699219 129 92.199219 96 96.097656 91.800781 C 99.398438 95.5 112.101562 110.398438 118.898438 132.898438 C 122.101562 143.699219 123.898438 156.199219 122.699219 170.101562" fill="#f4b157"/></g><g clip-path="url(#a)" id="change3_1"><path d="M 588.5 189.199219 C 584.5 192.101562 572.800781 200.398438 563.300781 214.699219 C 560.101562 219.5 557.199219 225 554.898438 231.101562 C 553.199219 235.601562 551.898438 240.398438 551.101562 245.699219 C 548.601562 261.800781 551.699219 275.199219 554.101562 282.601562 C 554.398438 282.601562 554.601562 282.5 554.898438 282.5 C 562.101562 281.101562 573 277.800781 582.898438 269.601562 C 602.101562 253.601562 600.5 233 618.699219 203.199219 C 624.300781 194 632.5 182.800781 644.5 171.300781 C 634.699219 171.398438 611.199219 173 588.5 189.199219 Z M 197 155.699219 C 184.898438 167.199219 176.800781 178.398438 171.199219 187.601562 C 157.601562 209.898438 155.101562 227 146.601562 241 C 143.800781 245.699219 140.199219 250 135.398438 254 C 125.5 262.300781 114.5 265.5 107.398438 266.898438 C 107.101562 266.898438 106.898438 267 106.601562 267 C 104.199219 259.5 101 246.199219 103.601562 230.101562 C 104.398438 224.898438 105.699219 220 107.398438 215.601562 C 109.699219 209.398438 112.601562 204 115.800781 199.199219 C 116.300781 198.398438 116.800781 197.699219 117.398438 197 C 117.898438 196.300781 118.398438 195.601562 118.898438 194.898438 C 118.898438 194.898438 118.898438 194.898438 118.898438 194.800781 C 120.101562 193.199219 121.300781 191.699219 122.601562 190.300781 C 123.101562 189.699219 123.601562 189.199219 124.101562 188.601562 C 124.699219 188 125.199219 187.398438 125.800781 186.800781 C 126.300781 186.300781 126.800781 185.699219 127.300781 185.199219 C 128.300781 184.199219 129.398438 183.199219 130.300781 182.300781 C 130.601562 182 131 181.699219 131.300781 181.398438 C 131.601562 181.101562 131.898438 180.800781 132.199219 180.601562 C 136 177.300781 139.199219 175 140.898438 173.800781 C 163.601562 157.5 187.101562 155.898438 197 155.699219" fill="#7ec1d1"/></g><g id="change2_2"><path d="M 363.5 306.398438 C 360.5 320.101562 357.5 333.800781 354.5 347.5 L 292.699219 347.199219 L 283.5 305.898438 L 283.5 305.800781 C 284.898438 301.5 286.199219 296.699219 287.300781 291.699219 C 290.199219 278.300781 290.800781 266.199219 290.601562 256.101562 C 292.398438 256.300781 294.199219 256.5 296 256.699219 C 296.5 269.101562 297.101562 281.5 297.601562 293.898438 C 298.5 295.199219 306.800781 306.398438 321.300781 306.800781 C 332.398438 307.199219 343 301.101562 348.699219 291.199219 C 348.398438 279.898438 348.101562 268.601562 347.800781 257.300781 C 349.800781 256.898438 351.699219 256.5 353.699219 256.101562 C 353.699219 256.199219 353.699219 256.199219 353.699219 256.300781 C 354.199219 265.300781 355.398438 275.800781 358.101562 287.199219 C 359.601562 294.199219 361.5 300.601562 363.5 306.398438 Z M 306.898438 473.898438 C 293.699219 473.800781 273.199219 471.699219 253 459.898438 C 244.699219 455 244.300781 453.199219 224.898438 436.199219 C 216.5 428.898438 209.398438 422.898438 203.398438 418 C 183.300781 401.300781 175.699219 395.601562 175.300781 384.800781 C 175 376.898438 178.601562 367.101562 185.601562 363.601562 C 191.800781 360.5 198.800781 362.800781 203.199219 364.398438 C 227.300781 373.300781 254.601562 391.800781 266.699219 400.398438 L 273.398438 383.300781 C 274.300781 385.699219 275.199219 388.300781 276.101562 390.898438 C 276.601562 392.398438 277.101562 393.898438 277.699219 395.5 C 277.898438 396.101562 278.101562 396.800781 278.300781 397.398438 C 278.800781 399 279.398438 400.699219 279.898438 402.398438 C 280.101562 403.101562 280.398438 403.800781 280.601562 404.601562 C 283 411.898438 285.398438 420.101562 287.898438 429.398438 C 288.601562 431.898438 289.199219 434.300781 289.699219 436.5 C 289.699219 436.601562 289.800781 436.800781 289.800781 437 C 289.898438 437.199219 289.898438 437.300781 289.898438 437.5 C 290.699219 440.699219 291.398438 443.398438 291.898438 445.5 C 291.898438 445.699219 291.898438 446 291.898438 446.199219 C 291.898438 446.699219 291.898438 447.101562 291.898438 447.601562 C 291.898438 450.398438 292.398438 454.699219 294.300781 459.398438 C 294.300781 459.5 294.398438 459.601562 294.398438 459.699219 C 294.699219 460.5 295.101562 461.199219 295.5 462 C 295.5 462 295.5 462.101562 295.601562 462.101562 C 295.800781 462.5 296 462.898438 296.300781 463.300781 C 296.5 463.699219 296.699219 464 297 464.398438 C 297 464.5 297.101562 464.5 297.101562 464.601562 C 297.199219 464.800781 297.398438 465 297.5 465.199219 C 297.699219 465.5 297.800781 465.699219 298 465.898438 C 298.199219 466.199219 298.5 466.5 298.699219 466.800781 C 298.898438 467.101562 299.101562 467.300781 299.300781 467.601562 C 299.398438 467.800781 299.601562 467.898438 299.699219 468.101562 C 299.898438 468.300781 300.101562 468.5 300.300781 468.800781 C 300.5 469 300.699219 469.300781 301 469.5 C 301.199219 469.699219 301.398438 469.898438 301.699219 470.101562 C 301.898438 470.300781 302.101562 470.5 302.398438 470.699219 C 302.601562 470.898438 302.800781 471.101562 303.101562 471.300781 C 303.5 471.699219 303.898438 472 304.300781 472.300781 C 305 472.699219 306 473.300781 306.898438 473.898438 Z M 441.101562 418 C 438 420.5 434.601562 423.199219 430.898438 426.101562 C 391.601562 457.101562 376.300781 465.898438 356.101562 471 C 349.699219 472.601562 344.300781 473.5 340.699219 473.898438 C 341 473.800781 341.300781 473.699219 341.601562 473.601562 C 341.898438 473.5 342.199219 473.398438 342.5 473.300781 C 344.398438 472.601562 346.800781 471.601562 349.199219 469.898438 C 349.398438 469.800781 349.601562 469.601562 349.699219 469.5 C 353.398438 466.699219 355.699219 463.398438 357.398438 460.199219 C 357.398438 460.199219 357.398438 460.101562 357.5 460.101562 C 358.199219 458.800781 358.800781 457.5 359.300781 456.199219 C 359.300781 456.101562 359.300781 456.101562 359.398438 456 C 363.199219 447.398438 363.898438 439.199219 363.800781 433.101562 L 363.800781 433 C 364.199219 430.398438 364.601562 427.800781 365 425.300781 C 365.398438 422.800781 365.800781 420.398438 366.199219 417.898438 C 366.5 416.300781 366.699219 414.800781 367 413.300781 C 367.300781 411.800781 367.5 410.300781 367.800781 408.800781 C 368.101562 407.199219 368.300781 405.699219 368.601562 404.199219 C 368.898438 402.699219 369.101562 401.199219 369.398438 399.699219 C 374.5 396.898438 410.199219 377.398438 439.699219 363 C 443.101562 361.300781 449.699219 358.199219 456.699219 360.300781 C 465.5 362.898438 472.199219 372.699219 472.898438 381.101562 C 473.5 388.699219 469.398438 395.101562 441.101562 418 Z M 343.699219 212.5 C 343.699219 216.101562 340.800781 219.101562 337.101562 219.101562 C 333.5 219.101562 330.5 216.199219 330.5 212.5 C 330.5 208.898438 333.398438 205.898438 337.101562 205.898438 C 340.800781 205.898438 343.699219 208.898438 343.699219 212.5 Z M 306.5 205.898438 C 302.898438 205.898438 299.898438 208.898438 299.898438 212.5 C 299.898438 216.101562 302.800781 219.101562 306.5 219.101562 C 310.101562 219.101562 313.101562 216.199219 313.101562 212.5 C 313.101562 208.898438 310.101562 205.898438 306.5 205.898438 Z M 345 431.699219 C 338.601562 436.398438 332.300781 441.101562 325.898438 445.800781 C 325.699219 445.398438 325.300781 444.398438 324.101562 443.601562 C 322.699219 442.699219 321.398438 442.898438 321 442.898438 L 305.800781 433.101562 C 303.699219 416.800781 301.5 400.5 299.398438 384.199219 C 306.398438 385.601562 315.199219 386.699219 325.300781 386.699219 C 334.800781 386.601562 343 385.601562 349.699219 384.199219 L 345 431.699219" fill="#f4b157"/></g><g id="change4_1"><path d="M 541.300781 250.101562 C 540.101562 242.800781 538 236.199219 535.398438 230.300781 C 532.601562 224.199219 529.199219 218.800781 525.699219 214.199219 C 522.699219 210.300781 519.601562 206.898438 516.699219 204.101562 C 511.199219 198.699219 506.300781 195.300781 504 193.601562 C 502.5 192.5 501 191.5 499.5 190.601562 C 478.300781 177.199219 457.101562 175.800781 448 175.699219 C 460.101562 187.199219 468.199219 198.398438 473.800781 207.601562 C 477.5 213.601562 480.398438 219.300781 482.800781 224.601562 C 485.398438 230.5 487.5 235.898438 489.398438 241 C 494.398438 254.101562 498.601562 264.800781 509.601562 273.898438 C 519.898438 282.398438 531.199219 285.601562 538.398438 287 C 538.5 286.699219 538.601562 286.398438 538.699219 286.101562 C 540.898438 278.5 543.699219 265.5 541.300781 250.101562 Z M 91 270.5 C 90.898438 270.800781 90.800781 271.101562 90.699219 271.398438 C 83.597656 270 72.199219 266.898438 61.898438 258.300781 C 42.699219 242.300781 44.300781 221.699219 26.097656 191.898438 C 20.5 182.699219 12.300781 171.5 0.300781 160 C 10.097656 160.101562 33.699219 161.800781 56.398438 178 C 59.898438 180.5 69.398438 187.300781 78.097656 198.601562 C 81.597656 203.199219 85 208.5 87.800781 214.601562 C 90.5 220.5 92.597656 227.101562 93.800781 234.398438 C 96.199219 250 93.300781 262.898438 91 270.5" fill="#fc795d"/></g><g id="change5_1"><path d="M 335.800781 176.699219 C 336.199219 176.699219 336.5 176.5 336.601562 176.101562 C 336.800781 175.601562 336.5 175.101562 336.101562 175 C 332.800781 173.800781 329.398438 173 325.898438 172.699219 C 320.5 172.300781 315.199219 173.101562 310 175 C 309.5 175.199219 309.300781 175.699219 309.5 176.101562 C 309.699219 176.601562 310.199219 176.800781 310.601562 176.601562 C 315.5 174.800781 320.601562 174 325.699219 174.398438 C 329 174.699219 332.300781 175.398438 335.398438 176.601562 C 335.601562 176.699219 335.699219 176.699219 335.800781 176.699219 Z M 316.199219 193.101562 C 316.398438 192.398438 315.699219 191.800781 315.601562 191.699219 C 314.300781 191.398438 309.800781 190.5 305.5 193 C 304.101562 193.800781 303 194.800781 302.300781 195.699219 C 304.898438 194.101562 307 193.898438 308.398438 194 C 310.5 194.101562 313.398438 194.898438 315.199219 194.101562 C 315.601562 193.898438 316.101562 193.601562 316.199219 193.101562 Z M 316.601562 222.898438 C 316.398438 223.300781 316.601562 223.898438 317 224.101562 C 318.699219 224.898438 320.5 225.300781 322.300781 225.300781 C 324.300781 225.300781 326.398438 224.800781 328.199219 223.898438 C 328.601562 223.699219 328.800781 223.101562 328.601562 222.699219 C 328.398438 222.300781 327.800781 222.101562 327.398438 222.300781 C 326.300781 222.898438 324.5 223.5 322.300781 223.5 C 320.699219 223.5 319.199219 223.199219 317.699219 222.5 C 317.300781 222.300781 316.800781 222.5 316.601562 222.898438 Z M 97.398438 323.898438 C 89.398438 324.101562 81.398438 325.398438 73.699219 327.898438 C 81.800781 329.699219 90.097656 330.699219 98.300781 330.800781 C 98 328.398438 97.699219 326.199219 97.398438 323.898438 Z M 71.300781 329.199219 L 71.300781 380 C 76.398438 383.300781 84.597656 387.398438 95.199219 388.199219 C 110.101562 389.398438 121.601562 383.699219 127.300781 380 L 127.300781 329.101562 C 119.398438 331 111.300781 332.101562 103.300781 332.398438 L 103.101562 332.398438 C 102.601562 332.398438 102 332.398438 101.398438 332.5 C 91.300781 332.699219 81.199219 331.5 71.300781 329.199219 Z M 99.199219 323.800781 C 99.5 326.101562 99.800781 328.398438 100.101562 330.699219 C 100.199219 330.699219 100.398438 330.699219 100.5 330.699219 C 100.398438 328.398438 100.398438 326.101562 100.300781 323.800781 L 100.199219 323.800781 C 99.898438 323.800781 99.5 323.800781 99.199219 323.800781 Z M 102.101562 323.898438 C 102.199219 326.199219 102.199219 328.398438 102.300781 330.699219 L 102.398438 330.699219 L 102.800781 323.898438 C 102.601562 323.898438 102.398438 323.898438 102.101562 323.898438 Z M 104.199219 330.601562 C 111.199219 330.300781 118.101562 329.398438 125 327.800781 C 118.398438 325.699219 111.5 324.398438 104.601562 324 Z M 53.898438 203.5 C 53.597656 203.101562 53.597656 202.601562 54 202.300781 C 54.398438 202 54.898438 202 55.199219 202.398438 C 69.398438 219.800781 80.398438 238.800781 87.898438 259 C 89.300781 262.898438 90.597656 266.699219 91.699219 270.398438 C 91.699219 270.398438 91.800781 270.601562 91.800781 270.699219 C 94.199219 287.898438 96.5 305 98.800781 322.199219 C 99.300781 322.199219 99.699219 322.199219 100.199219 322.199219 L 97.699219 227.199219 C 97 200.300781 96.300781 173.300781 95.5 146.398438 C 95.5 145.898438 95.898438 145.5 96.398438 145.5 C 96.898438 145.5 97.300781 145.898438 97.300781 146.398438 C 98 173.300781 98.699219 200.300781 99.5 227.199219 L 102 322.300781 C 102.300781 322.300781 102.601562 322.300781 102.898438 322.300781 C 104.101562 303.898438 105.199219 285.398438 106.398438 267 L 107.300781 266.898438 L 106.398438 266.800781 L 106.398438 266.5 C 107.699219 261.601562 109.101562 256.898438 110.699219 252.398438 C 112.800781 246.398438 115.300781 240.5 118 234.800781 C 126.300781 217.601562 137.699219 201.5 151.699219 187 C 152 186.601562 152.601562 186.601562 153 187 C 153.398438 187.300781 153.398438 187.898438 153 188.300781 C 139.101562 202.699219 127.800781 218.601562 119.601562 235.601562 C 116.898438 241.199219 114.398438 247.101562 112.398438 253 C 110.800781 257.5 109.398438 262.101562 108.199219 266.898438 L 108.199219 267.199219 C 107.101562 285.601562 105.898438 304 104.699219 322.398438 C 112.898438 322.898438 120.898438 324.601562 128.601562 327.300781 C 128.699219 327.300781 128.699219 327.398438 128.699219 327.398438 L 128.800781 327.398438 C 128.898438 327.5 128.898438 327.5 129 327.601562 C 129 327.601562 129 327.601562 129 327.699219 C 129.101562 327.800781 129.101562 327.898438 129.101562 328.101562 L 129.101562 380.601562 C 129.101562 380.898438 129 381.199219 128.699219 381.300781 C 123.398438 384.800781 112.898438 390.300781 99.199219 390.300781 C 97.800781 390.300781 96.5 390.199219 95 390.101562 C 83.699219 389.199219 75.097656 384.800781 69.800781 381.300781 C 69.597656 381.101562 69.398438 380.898438 69.398438 380.601562 L 69.398438 328 C 69.398438 327.898438 69.398438 327.699219 69.5 327.601562 C 69.597656 327.5 69.597656 327.398438 69.699219 327.398438 L 69.800781 327.398438 L 69.898438 327.300781 C 78.597656 324.199219 87.699219 322.5 96.898438 322.199219 C 94.597656 305.101562 92.300781 288 89.898438 271 C 88.800781 267.300781 87.5 263.5 86.097656 259.699219 C 78.898438 239.5 68 220.699219 53.898438 203.5 Z M 333.398438 205.5 L 333.5 205.5 C 335.398438 205.398438 337.101562 204.300781 337.898438 202.601562 C 338.101562 202.199219 337.898438 201.601562 337.5 201.398438 C 337.101562 201.199219 336.5 201.398438 336.300781 201.800781 C 335.800781 202.898438 334.601562 203.699219 333.398438 203.699219 C 332 203.699219 330.898438 203 330.300781 201.800781 C 330.101562 201.398438 329.601562 201.199219 329.101562 201.398438 C 328.699219 201.601562 328.5 202.101562 328.699219 202.601562 C 329.601562 204.398438 331.398438 205.5 333.398438 205.5 Z M 531.199219 417.5 C 531 417.199219 530.800781 417.101562 530.5 417.101562 L 441.199219 417.101562 C 440.699219 417.101562 440.300781 417.5 440.300781 418 C 440.300781 418.5 440.699219 418.898438 441.199219 418.898438 L 530 418.898438 L 580.300781 498.300781 L 41.398438 496.199219 C 60.800781 470.398438 80.300781 444.699219 99.699219 418.898438 L 203.398438 418.898438 C 203.898438 418.898438 204.300781 418.5 204.300781 418 C 204.300781 417.5 203.898438 417.101562 203.398438 417.101562 L 99.300781 417.101562 C 99 417.101562 98.800781 417.199219 98.597656 417.5 C 78.699219 443.800781 58.800781 470.199219 38.898438 496.5 C 38.699219 496.800781 38.699219 497.101562 38.800781 497.398438 C 38.898438 497.699219 39.300781 497.898438 39.597656 497.898438 L 581.898438 500 C 582.199219 500 582.5 499.800781 582.699219 499.5 C 582.898438 499.199219 582.800781 498.898438 582.699219 498.601562 Z M 237.800781 45.800781 C 237.300781 45.699219 236.800781 45.898438 236.699219 46.398438 C 230.800781 64.601562 222.699219 82.101562 212.601562 98.300781 C 199.800781 118.898438 183.898438 137.398438 165.300781 153.300781 C 164.898438 153.601562 164.898438 154.199219 165.199219 154.5 C 165.398438 154.699219 165.601562 154.800781 165.898438 154.800781 C 166.101562 154.800781 166.300781 154.699219 166.5 154.601562 C 185.199219 138.601562 201.199219 120 214.101562 99.199219 C 224.300781 82.898438 232.398438 65.300781 238.398438 47 C 238.5 46.5 238.199219 46 237.800781 45.800781 Z M 211.199219 157.199219 C 210.800781 157.5 210.800781 158.101562 211.199219 158.5 C 211.398438 158.699219 211.601562 158.800781 211.800781 158.800781 C 212 158.800781 212.199219 158.699219 212.398438 158.601562 C 220.300781 151.101562 227.398438 142.601562 233.300781 133.5 C 240 123.300781 245.300781 112.300781 249.199219 100.699219 C 249.398438 100.199219 249.101562 99.699219 248.601562 99.601562 C 248.101562 99.398438 247.601562 99.699219 247.5 100.199219 C 243.699219 111.601562 238.398438 122.5 231.800781 132.601562 C 226 141.398438 219 149.800781 211.199219 157.199219 Z M 312.300781 201.800781 C 311.800781 202.898438 310.601562 203.699219 309.398438 203.699219 C 308 203.699219 306.898438 203 306.300781 201.800781 C 306.101562 201.398438 305.601562 201.199219 305.101562 201.398438 C 304.699219 201.601562 304.5 202.101562 304.699219 202.601562 C 305.5 204.398438 307.300781 205.5 309.300781 205.5 L 309.398438 205.5 C 311.300781 205.398438 313 204.300781 313.800781 202.601562 C 314 202.199219 313.800781 201.601562 313.398438 201.398438 C 313 201.199219 312.5 201.398438 312.300781 201.800781 Z M 337.898438 193.5 C 333.601562 191 329.101562 191.898438 327.800781 192.199219 C 327.699219 192.300781 327 192.898438 327.199219 193.601562 C 327.300781 194.101562 327.898438 194.398438 328.199219 194.5 C 330.101562 195.398438 332.898438 194.5 334.800781 194.398438 C 336.398438 194.300781 338.5 194.601562 341.199219 196.199219 C 340.398438 195.300781 339.398438 194.300781 337.898438 193.5 Z M 322.199219 196.398438 C 321.699219 196.300781 321.199219 196.601562 321.101562 197 C 320.5 199.601562 320.5 202 321.398438 204.101562 C 321.898438 205.5 322.699219 206.5 323.300781 207.300781 C 324 208.199219 324.5 208.800781 324.5 209.699219 C 324.5 211 323.5 212.398438 321.398438 213.898438 C 321 214.199219 320.898438 214.699219 321.199219 215.101562 C 321.398438 215.300781 321.601562 215.5 321.898438 215.5 C 322.101562 215.5 322.300781 215.398438 322.398438 215.300781 C 324.898438 213.5 326.199219 211.601562 326.199219 209.699219 C 326.199219 208.199219 325.398438 207.199219 324.601562 206.199219 C 324 205.398438 323.398438 204.601562 322.898438 203.5 C 322.199219 201.699219 322.101562 199.699219 322.699219 197.5 C 323 197 322.699219 196.5 322.199219 196.398438 Z M 552.199219 339.5 L 551.800781 346.101562 C 558.800781 345.800781 565.800781 344.898438 572.601562 343.300781 C 566 341.199219 559.101562 340 552.199219 339.5 Z M 575 344.699219 C 567.101562 346.601562 559 347.699219 551 348 L 550.800781 348 C 550.300781 348 549.699219 348 549.101562 348.101562 C 539 348.300781 528.800781 347.199219 519 344.800781 L 519 395.699219 C 524.101562 399 532.300781 403.101562 542.898438 403.898438 C 557.800781 405.101562 569.300781 399.398438 575 395.699219 Z M 521.300781 343.398438 C 529.398438 345.199219 537.699219 346.199219 546 346.199219 C 545.699219 343.898438 545.398438 341.601562 545.101562 339.398438 C 536.898438 339.601562 529 340.898438 521.300781 343.398438 Z M 546.800781 339.398438 C 547.101562 341.699219 547.398438 344 547.699219 346.300781 C 547.800781 346.300781 548 346.300781 548.101562 346.300781 C 548 344 548 341.699219 547.898438 339.398438 L 547.800781 339.398438 C 547.5 339.398438 547.101562 339.398438 546.800781 339.398438 Z M 549.699219 339.398438 C 549.800781 341.699219 549.800781 343.898438 549.898438 346.199219 L 550 346.199219 L 550.398438 339.398438 C 550.199219 339.398438 550 339.398438 549.699219 339.398438 Z M 600.699219 203.699219 C 582.101562 222.898438 568.398438 244.601562 560.101562 268.398438 C 558.5 272.800781 557.101562 277.5 555.898438 282.199219 L 555.898438 282.5 C 554.800781 300.898438 553.601562 319.300781 552.398438 337.699219 C 560.5 338.199219 568.601562 339.800781 576.300781 342.601562 C 576.398438 342.601562 576.398438 342.699219 576.398438 342.699219 L 576.5 342.699219 C 576.601562 342.800781 576.601562 342.800781 576.699219 342.898438 C 576.699219 342.898438 576.699219 342.898438 576.699219 343 C 576.800781 343.101562 576.800781 343.199219 576.800781 343.398438 L 576.800781 396 C 576.800781 396.300781 576.699219 396.601562 576.398438 396.699219 C 571.101562 400.199219 560.601562 405.699219 546.898438 405.699219 C 545.601562 405.699219 544.199219 405.601562 542.800781 405.5 C 531.5 404.601562 522.898438 400.199219 517.601562 396.699219 C 517.398438 396.5 517.199219 396.300781 517.199219 396 L 517.199219 343.5 C 517.199219 343.398438 517.199219 343.199219 517.300781 343.101562 C 517.398438 343 517.398438 342.898438 517.5 342.898438 L 517.601562 342.898438 L 517.699219 342.800781 C 526.398438 339.699219 535.5 338 544.699219 337.699219 L 537.699219 286.601562 L 537.699219 286.5 C 536.601562 282.800781 535.300781 279 533.898438 275.199219 C 529.199219 262.601562 523.101562 250.398438 515.800781 239 C 511.5 232.199219 506.601562 225.5 501.398438 219.101562 C 501.101562 218.699219 501.101562 218.199219 501.5 217.898438 C 501.898438 217.601562 502.398438 217.601562 502.699219 218 C 508 224.398438 512.800781 231.199219 517.199219 238 C 524.601562 249.601562 530.699219 261.898438 535.398438 274.601562 C 536.800781 278.5 538.101562 282.300781 539.199219 286 C 539.199219 286 539.300781 286.300781 539.300781 286.398438 L 546.300781 337.800781 C 546.699219 337.800781 547.199219 337.800781 547.601562 337.800781 L 545.101562 242.800781 C 544.398438 215.898438 543.699219 188.898438 542.898438 162 C 542.898438 161.5 543.300781 161.101562 543.800781 161.101562 C 544.300781 161.101562 544.699219 161.5 544.699219 162 C 545.398438 188.898438 546.101562 215.898438 546.898438 242.800781 L 549.5 337.898438 C 549.800781 337.898438 550.101562 337.898438 550.398438 337.898438 C 551.601562 319.5 552.699219 301 553.898438 282.601562 L 554.800781 282.5 L 553.898438 282.398438 L 553.898438 282.101562 C 555.199219 277.199219 556.601562 272.5 558.199219 268 C 566.601562 244 580.398438 222.101562 599.199219 202.699219 C 599.5 202.300781 600.101562 202.300781 600.5 202.699219 C 601 202.800781 601 203.398438 600.699219 203.699219 Z M 314.300781 146.699219 C 311.5 148 309.5 150.300781 309 152.800781 C 308.398438 156 310.199219 159.800781 313.601562 162.199219 C 314.300781 162 315 161.898438 315.699219 161.699219 L 316.300781 161.601562 C 320.300781 160.699219 323.898438 159.898438 327.101562 159.5 C 328.898438 154.601562 327.300781 149 323.199219 146.699219 C 320.601562 145.300781 317.300781 145.300781 314.300781 146.699219 Z M 323.898438 459.898438 C 323.398438 460.101562 322.898438 460.300781 322.398438 460.300781 C 322.398438 460.300781 322.398438 460.300781 322.300781 460.300781 C 322.199219 460.300781 322.199219 460.300781 322.101562 460.300781 C 322.800781 460.601562 323.5 460.898438 324.199219 461.101562 C 324.101562 460.699219 323.898438 460.300781 323.898438 459.898438 Z M 322.5 450.800781 C 323.5 450.5 324.398438 449.699219 324.800781 448.800781 C 325.199219 447.898438 325.300781 447 325 446.101562 C 324.699219 445.101562 323.898438 444.398438 322.898438 444 C 323.101562 444.601562 323.101562 445 322.898438 445.300781 C 322.398438 446.601562 320.398438 447.101562 312.699219 445.601562 C 312.800781 448.199219 313.601562 454.5 319.199219 458.601562 C 320 459.199219 320.800781 459.601562 321.601562 460 C 321.398438 459.898438 321.300781 459.601562 321.300781 459.398438 C 321.300781 458.898438 321.601562 458.5 322.101562 458.5 C 322.699219 458.5 323.300781 458.199219 323.699219 457.699219 C 324.101562 457.300781 324.300781 456.699219 324.199219 456.199219 C 324.101562 455.199219 323.199219 454.300781 322.101562 454.199219 C 321.601562 454.199219 321.199219 453.800781 321.300781 453.300781 C 321.300781 452.800781 321.699219 452.398438 322.199219 452.5 C 322.5 452.5 322.800781 452.601562 323.101562 452.699219 C 323.101562 452.601562 323 452.601562 323 452.5 C 322.898438 452.5 322.800781 452.5 322.699219 452.5 C 322.300781 452.5 322 452.300781 321.898438 451.898438 C 321.800781 451.5 322.101562 451 322.5 450.800781 Z M 328.5 456.101562 C 328.601562 456.601562 328.199219 457 327.699219 457.101562 C 326.5 457.199219 325.601562 458.199219 325.601562 459.398438 C 325.601562 460.5 326.398438 461.398438 327.398438 461.699219 C 328.5 461.800781 329.398438 461.800781 330 461.699219 C 334.101562 457.898438 337.199219 453 339.300781 447.101562 C 333 447.699219 329 447.800781 326.898438 447.398438 C 326.898438 448.101562 326.699219 448.898438 326.398438 449.601562 C 326 450.5 325.300781 451.199219 324.601562 451.699219 C 325.199219 453.199219 327.601562 453.601562 328.101562 453.699219 C 328.601562 453.800781 328.898438 454.199219 328.898438 454.699219 C 328.800781 455.101562 328.5 455.5 328 455.5 L 327.898438 455.5 C 327.5 455.398438 326.601562 455.300781 325.699219 454.898438 C 325.800781 455.199219 325.898438 455.601562 326 455.898438 C 326.398438 455.699219 326.898438 455.5 327.5 455.398438 C 328 455.300781 328.398438 455.699219 328.5 456.101562 Z M 252.398438 272.699219 C 240.800781 290.101562 249.800781 315.199219 267.699219 365.300781 L 268 366 C 268.898438 368.398438 269.800781 370.898438 270.699219 373.5 C 271.800781 376.5 272.898438 379.601562 274.199219 383 C 275.101562 385.398438 276 388 276.898438 390.601562 C 277.898438 393.601562 279.300781 397.699219 280.800781 402.101562 C 281 402.800781 281.300781 403.5 281.5 404.300781 C 284 412 286.398438 420.398438 288.800781 429.101562 C 289.398438 431.398438 290 433.5 290.5 435.5 L 290.898438 437.199219 C 291.699219 440.398438 292.398438 443.101562 292.898438 445.199219 C 292.898438 445.300781 292.898438 445.398438 292.898438 445.5 C 292.898438 445.699219 292.898438 445.898438 292.898438 446.199219 C 292.699219 451.601562 293.898438 456.898438 296.398438 461.601562 L 296.398438 461.699219 C 296.601562 462.101562 296.800781 462.5 297.101562 462.898438 C 297.300781 463.199219 297.5 463.601562 297.699219 463.898438 C 297.699219 463.898438 297.800781 464 297.800781 464.101562 C 297.898438 464.300781 298 464.398438 298.101562 464.601562 C 298.300781 464.898438 298.398438 465 298.5 465.199219 L 299.300781 466.300781 C 299.5 466.601562 299.699219 466.800781 299.898438 467 C 300 467.199219 300.199219 467.300781 300.300781 467.5 C 300.5 467.699219 300.699219 467.898438 300.898438 468.101562 C 301.101562 468.398438 301.300781 468.601562 301.5 468.800781 C 301.699219 469 301.898438 469.199219 302.101562 469.398438 C 302.398438 469.699219 302.601562 469.800781 302.800781 470 C 303 470.199219 303.199219 470.398438 303.398438 470.5 C 303.800781 470.898438 304.199219 471.199219 304.601562 471.5 C 305.398438 472.101562 306.300781 472.800781 307.300781 473.300781 C 316.898438 479.101562 326.699219 477.601562 332.300781 475.898438 C 326.898438 475.800781 322.101562 474.601562 320 473 C 319.199219 472.398438 318.800781 471.800781 318.699219 471.101562 C 318.5 469.5 320 468.601562 322.300781 467.300781 C 323.800781 466.398438 325.699219 465.300781 327.800781 463.699219 C 327.601562 463.699219 327.398438 463.699219 327.199219 463.699219 C 327.101562 463.699219 327.101562 463.699219 327 463.699219 C 327 463.699219 327 463.699219 326.898438 463.699219 C 324.398438 463.5 321.101562 462.699219 318 460.398438 C 310.601562 454.898438 310.699219 445.898438 310.800781 444.800781 C 310.800781 444.5 310.898438 444.300781 311.101562 444.101562 C 311.300781 443.898438 311.601562 443.898438 311.800781 443.898438 C 318.800781 445.398438 320.601562 445.101562 321 444.898438 C 320.898438 444.699219 320.699219 444.398438 320.199219 443.898438 C 320.101562 443.898438 320.101562 443.800781 320 443.699219 C 318.5 442.300781 314.601562 439.5 305 434.199219 C 304.699219 434.101562 304.601562 433.800781 304.601562 433.5 C 302.300781 411.699219 299.199219 389.601562 295.398438 368 C 291.199219 344.300781 286 320.5 280 297.199219 C 280 297.101562 280 297.101562 280 297 L 280 284.5 C 280 284 280.398438 283.601562 280.898438 283.601562 C 281.398438 283.601562 281.800781 284 281.800781 284.5 L 281.800781 296.898438 C 287.800781 320.199219 293 344 297.199219 367.699219 C 301 389.199219 304.101562 411.101562 306.398438 432.800781 C 314.800781 437.5 319 440.300781 321.101562 442.199219 C 323 442.101562 324.699219 442.898438 325.800781 444.300781 C 326.398438 443.800781 327.398438 443.300781 328.699219 442.5 L 329.398438 442.101562 C 331.601562 440.800781 334.398438 439.199219 337.5 436.898438 C 339.800781 435.199219 342 433.300781 344 431.398438 L 351.300781 357.300781 L 366.199219 289 C 366.300781 288.5 366.800781 288.199219 367.300781 288.300781 C 367.800781 288.398438 368.101562 288.898438 368 289.398438 L 353.300781 357.5 L 345.898438 431.800781 C 345.898438 432 345.800781 432.199219 345.601562 432.300781 C 343.5 434.398438 341.101562 436.398438 338.601562 438.199219 C 335.398438 440.601562 332.699219 442.199219 330.398438 443.5 L 329.699219 443.898438 C 328.601562 444.5 327.601562 445.101562 327 445.5 C 328.199219 445.800781 331.601562 446 340.5 445.101562 C 340.800781 445.101562 341.101562 445.199219 341.300781 445.398438 C 341.5 445.601562 341.5 445.898438 341.5 446.199219 C 339.300781 453.101562 335.800781 458.699219 331 463.101562 C 328 465.800781 325.300781 467.398438 323.300781 468.5 C 321.898438 469.300781 320.5 470.101562 320.601562 470.601562 C 320.601562 470.699219 320.800781 471 321.199219 471.300781 C 323.398438 472.898438 330.300781 474.601562 337.800781 473.5 C 338.601562 473.398438 339.5 473.199219 340.601562 473 C 340.898438 472.898438 341.199219 472.800781 341.5 472.800781 C 341.800781 472.699219 342.101562 472.601562 342.398438 472.5 C 343.199219 472.199219 344.101562 471.898438 344.898438 471.601562 C 346.300781 471 347.601562 470.199219 348.898438 469.300781 C 349.101562 469.199219 349.199219 469.101562 349.398438 468.898438 C 352.300781 466.699219 354.800781 463.601562 356.800781 459.800781 L 356.898438 459.601562 C 357.5 458.5 358.101562 457.199219 358.601562 455.898438 C 358.601562 455.898438 358.699219 455.800781 358.699219 455.699219 C 363 445.199219 363 433.699219 363 433.199219 L 363 433 C 363.398438 430.398438 363.800781 427.800781 364.199219 425.300781 C 364.601562 422.800781 365 420.300781 365.398438 417.898438 C 365.699219 416.300781 365.898438 414.800781 366.199219 413.300781 L 366.300781 413 C 366.5 411.601562 366.800781 410.199219 367 408.800781 C 367.300781 407.300781 367.5 405.699219 367.800781 404.199219 C 368.101562 402.699219 368.300781 401.199219 368.601562 399.699219 C 373.699219 372.398438 380.101562 346.800781 387.601562 323.398438 L 388.101562 321.699219 C 392.5 308 398.601562 289.199219 389.699219 273 C 384.601562 263.800781 375.5 256.800781 362.699219 252.199219 C 360.199219 254.5 357.398438 256.199219 354.101562 257.199219 C 352.199219 257.800781 350.101562 258.101562 348 258.300781 C 347.5 258.300781 347 258.300781 346.5 258.300781 C 343 258.300781 340.5 257.699219 340.199219 257.601562 C 340 257.5 339.800781 257.398438 339.699219 257.300781 C 337.101562 253.800781 335.199219 250 334 245.898438 C 332.898438 242 332.5 238.101562 332.699219 234.101562 C 327.199219 237.5 321.800781 237.699219 321.601562 237.699219 C 321.398438 237.699219 321.300781 237.699219 321.101562 237.699219 C 313.398438 237.699219 307.699219 233.300781 304.699219 230.398438 C 304.800781 231.800781 304.898438 233.199219 304.800781 234.601562 C 304.5 242.199219 301.800781 249.800781 296.898438 257.199219 C 296.699219 257.398438 296.5 257.601562 296.199219 257.601562 C 294.300781 257.601562 292.398438 257.398438 290.601562 257 C 288.5 256.601562 286.398438 255.800781 284.398438 254.800781 C 269.101562 257.601562 258.398438 263.601562 252.398438 272.699219 Z M 118 131.199219 L 118 0.898438 C 118 0.398438 118.398438 0 118.898438 0 L 516.601562 0 C 517.101562 0 517.5 0.398438 517.5 0.898438 L 517.5 161.800781 C 517.5 162.300781 517.101562 162.699219 516.601562 162.699219 C 516.101562 162.699219 515.699219 162.300781 515.699219 161.800781 L 515.699219 1.800781 L 320.601562 1.800781 L 319.300781 143.898438 C 321 144 322.699219 144.398438 324.101562 145.199219 C 328.699219 147.800781 330.800781 153.800781 329.101562 159.398438 C 331.699219 159.300781 334.101562 159.601562 336.300781 160.601562 L 336.300781 15.699219 C 336.300781 15.199219 336.699219 14.800781 337.199219 14.800781 L 499.5 14.800781 C 500 14.800781 500.398438 15.199219 500.398438 15.699219 L 500.398438 190.5 C 500.398438 191 500 191.398438 499.5 191.398438 C 499 191.398438 498.601562 191 498.601562 190.5 L 498.601562 16.5 L 338 16.5 L 338 161.398438 C 338.199219 161.5 338.300781 161.601562 338.5 161.699219 C 341.199219 163.5 345.300781 167.699219 344.5 172.101562 C 347.300781 174.699219 349.898438 177.601562 352 180.800781 C 360.699219 193.5 361.699219 207.398438 361 216.800781 C 361 217.300781 360.601562 217.601562 360.101562 217.601562 C 360.101562 217.601562 360.101562 217.601562 360 217.601562 C 359.5 217.601562 359.101562 217.101562 359.199219 216.699219 C 359.898438 207.601562 358.898438 194.101562 350.5 181.800781 C 348.601562 179 346.300781 176.398438 343.800781 174 C 342.699219 176 340.699219 177.199219 339.398438 177.699219 C 339.300781 177.800781 339.199219 177.800781 339 177.800781 C 338.699219 177.800781 338.300781 177.601562 338.199219 177.300781 C 338 176.898438 338.199219 176.300781 338.601562 176.101562 C 339.800781 175.601562 341.898438 174.300781 342.5 172.199219 C 343.5 168.601562 339.601562 164.800781 337.300781 163.199219 C 332.101562 159.601562 325.5 161.101562 316.5 163.199219 L 315.898438 163.300781 C 309.601562 164.800781 304.101562 166 303.300781 169.300781 C 302.699219 171.898438 305 174.699219 306.398438 176.199219 C 306.699219 176.601562 306.699219 177.101562 306.398438 177.5 C 306 177.800781 305.5 177.800781 305.101562 177.5 C 304.101562 176.5 303 175.101562 302.300781 173.699219 C 293.398438 180.800781 287.800781 188.601562 285.601562 197 C 284.800781 199.898438 284.5 202.601562 284.199219 205.398438 C 283.601562 210.300781 283 215.300781 280 221.5 C 279.398438 222.699219 278.800781 223.800781 278.101562 224.898438 C 276.199219 228 273.898438 231 271.199219 233.601562 C 271.398438 235.101562 271.898438 237.601562 273.101562 240.5 C 275 245.101562 278 248.699219 281.800781 251.398438 C 282.601562 252 283.5 252.5 284.398438 252.898438 C 286.300781 253.898438 288.398438 254.601562 290.5 255.101562 C 292.101562 255.398438 293.601562 255.601562 295.300781 255.699219 C 299.898438 248.699219 302.300781 241.5 302.699219 234.398438 C 302.800781 232.199219 302.699219 230 302.398438 227.898438 C 301.898438 224.601562 301 221.800781 300.101562 218.800781 C 298.601562 214 297.101562 209.101562 297.199219 202.398438 C 297.300781 195.199219 299.199219 188 302.800781 181 C 303 180.601562 303.601562 180.398438 304 180.601562 C 304.398438 180.800781 304.601562 181.398438 304.398438 181.800781 C 300.898438 188.601562 299 195.5 299 202.398438 C 298.898438 208.898438 300.398438 213.699219 301.800781 218.300781 C 302.699219 221.199219 303.601562 224.101562 304.101562 227.398438 C 306 229.601562 312.300781 236.101562 321.300781 235.800781 C 321.398438 235.800781 327.398438 235.601562 333 231.5 C 342.800781 224.398438 346.101562 206.601562 341.601562 186.101562 C 339.800781 183.699219 337.699219 181.601562 335.199219 179.800781 C 334.800781 179.5 334.699219 178.898438 335 178.601562 C 335.300781 178.199219 335.898438 178.101562 336.199219 178.398438 C 338.800781 180.398438 341.101562 182.699219 343 185.199219 C 347.199219 190.800781 348.5 196.101562 349.601562 200.800781 C 350 202.398438 350.398438 204 350.800781 205.398438 C 353.101562 212.300781 358.398438 218.398438 366.699219 223.699219 C 366.800781 223.601562 367 223.601562 367.101562 223.601562 L 482.5 223.601562 C 483 223.601562 483.398438 224 483.398438 224.5 C 483.398438 225 483 225.398438 482.5 225.398438 L 369.601562 225.398438 C 369.898438 225.601562 370.199219 225.800781 370.5 226 C 370.898438 226.199219 371.101562 226.800781 370.800781 227.199219 C 370.601562 227.5 370.300781 227.699219 370 227.699219 C 369.898438 227.699219 369.699219 227.699219 369.601562 227.601562 C 358.800781 221.601562 352 214.300781 349.300781 206.101562 C 348.800781 204.601562 348.398438 203 348 201.300781 C 347.199219 197.898438 346.300781 194.199219 344.101562 190.199219 C 347.398438 209.300781 343.699219 225.601562 334.300781 232.800781 C 333.898438 237.101562 334.199219 241.300781 335.398438 245.398438 C 336.5 249.199219 338.199219 252.699219 340.601562 255.898438 C 341.5 256.101562 344.199219 256.601562 347.601562 256.398438 C 349.601562 256.300781 351.5 256 353.300781 255.398438 C 356.5 254.398438 359.300781 252.800781 361.601562 250.5 C 364.300781 247.800781 366.199219 244.601562 367.199219 240.699219 C 367.800781 238.398438 368.101562 236 368 233.699219 L 361.5 225.101562 C 361.199219 224.699219 361.300781 224.199219 361.699219 223.898438 C 362.101562 223.601562 362.601562 223.699219 362.898438 224.101562 L 369.5 233 C 369.601562 233.101562 369.699219 233.300781 369.699219 233.5 C 369.800781 235.601562 369.601562 238 369.101562 240.199219 L 489.101562 240.199219 C 489.601562 240.199219 490 240.601562 490 241.101562 C 490 241.601562 489.601562 242 489.101562 242 L 368.800781 242 C 367.800781 245.398438 366.101562 248.398438 363.800781 250.898438 C 376.699219 255.601562 385.898438 262.800781 391 272.199219 C 400.300781 289.101562 394.101562 308.300781 389.5 322.300781 L 389 324 C 381.5 347.300781 375.101562 372.898438 370 400.101562 C 369.699219 401.601562 369.398438 403.101562 369.199219 404.601562 C 368.898438 406.101562 368.601562 407.699219 368.398438 409.199219 C 368.199219 410.601562 367.898438 412 367.699219 413.300781 L 367.601562 413.699219 C 367.300781 415.199219 367.101562 416.699219 366.800781 418.300781 C 366.398438 420.800781 366 423.300781 365.601562 425.800781 C 365.300781 427.601562 365.101562 429.398438 364.800781 431.300781 C 371.601562 425.800781 378.101562 420 383.898438 413.898438 C 386.800781 410.800781 389.398438 408 391.601562 405.5 C 397.898438 398.398438 402.5 393.199219 410.699219 389 C 415.800781 386.398438 421.300781 384.601562 427.199219 383.699219 C 427.699219 383.601562 428.101562 384 428.199219 384.398438 C 428.300781 384.898438 427.898438 385.300781 427.5 385.398438 C 421.800781 386.300781 416.5 388 411.601562 390.5 C 403.699219 394.601562 399.199219 399.601562 393 406.601562 C 390.800781 409.101562 388.199219 412 385.300781 415.101562 C 379 421.699219 372 428 364.5 433.800781 C 364.5 435.699219 364.101562 446.601562 360 456.699219 C 360 456.699219 359.898438 456.800781 359.898438 456.898438 C 359.300781 458.300781 358.699219 459.601562 358.101562 460.800781 C 355.898438 464.898438 353.199219 468.199219 350.101562 470.5 C 349.898438 470.601562 349.699219 470.800781 349.5 470.898438 C 348.101562 471.898438 346.699219 472.699219 345.199219 473.398438 C 344.300781 473.800781 343.398438 474.101562 342.601562 474.398438 C 342.300781 474.5 342 474.601562 341.699219 474.699219 C 341.398438 474.800781 341.101562 474.898438 340.800781 475 C 339.800781 475.199219 338.898438 475.398438 338.101562 475.5 C 337.101562 476 330.601562 479.199219 322.300781 479.199219 C 317.398438 479.199219 311.898438 478.101562 306.398438 474.800781 C 305.398438 474.199219 304.5 473.5 303.601562 472.898438 C 303.199219 472.601562 302.699219 472.199219 302.300781 471.898438 C 302.101562 471.699219 301.800781 471.5 301.601562 471.300781 C 301.398438 471.101562 301.101562 470.898438 300.898438 470.699219 C 300.699219 470.601562 300.5 470.300781 300.199219 470.101562 C 300 469.898438 299.699219 469.601562 299.5 469.398438 C 299.300781 469.199219 299.101562 469 298.898438 468.699219 C 298.800781 468.601562 298.601562 468.398438 298.5 468.199219 C 298.300781 468 298.101562 467.699219 297.898438 467.398438 L 297 466.199219 C 296.898438 466 296.800781 465.898438 296.699219 465.699219 C 296.601562 465.601562 296.601562 465.5 296.5 465.398438 C 286.101562 464 275.898438 461.398438 266.101562 457.800781 C 250.398438 452.101562 235.699219 443.699219 222.601562 432.898438 C 222.199219 432.601562 222.199219 432 222.5 431.699219 C 222.800781 431.300781 223.398438 431.300781 223.699219 431.601562 C 236.699219 442.199219 251.101562 450.5 266.699219 456.199219 C 275.898438 459.601562 285.5 462 295.199219 463.5 C 295 463.199219 294.898438 462.898438 294.699219 462.601562 C 294.699219 462.601562 294.699219 462.601562 294.699219 462.5 C 292.101562 457.5 290.800781 451.898438 291 446.300781 C 291 446.101562 291 445.898438 291 445.699219 C 290.5 443.601562 289.800781 440.898438 289.101562 437.800781 L 289.101562 437.699219 C 279.5 432.101562 270.699219 425.300781 263 417.5 C 260.601562 415 259 413.199219 257.5 411.5 C 256.300781 410.101562 255.199219 408.800781 253.699219 407.300781 C 245.101562 398.398438 234.101562 391.101562 220.898438 385.5 C 220.5 385.300781 220.199219 384.800781 220.398438 384.300781 C 220.601562 383.898438 221.101562 383.601562 221.601562 383.800781 C 235 389.5 246.199219 397 254.898438 406 C 256.398438 407.601562 257.601562 408.898438 258.800781 410.300781 C 260.300781 412 261.898438 413.800781 264.300781 416.199219 C 271.601562 423.5 279.699219 429.898438 288.601562 435.199219 C 288.199219 433.5 287.699219 431.699219 287.199219 429.800781 C 284.898438 421.101562 282.398438 412.800781 280 405.101562 C 279.800781 404.398438 279.5 403.601562 279.300781 402.898438 C 277.898438 398.398438 276.5 394.398438 275.398438 391.398438 C 274.5 388.699219 273.601562 386.199219 272.699219 383.800781 C 271.5 380.5 270.300781 377.300781 269.300781 374.398438 C 268.300781 371.800781 267.398438 369.300781 266.5 366.898438 L 266.199219 366.199219 C 248.101562 315.601562 238.898438 290.101562 251.101562 272 C 257.101562 263 267.5 256.800781 282 253.800781 C 281.800781 253.601562 281.5 253.5 281.300781 253.300781 C 277.300781 250.601562 274.300781 246.800781 272.199219 242.199219 L 146.5 242.199219 C 146 242.199219 145.601562 241.800781 145.601562 241.300781 C 145.601562 240.800781 146 240.398438 146.5 240.398438 L 271.199219 240.398438 C 270.101562 237.601562 269.699219 235.101562 269.601562 233.898438 C 269.601562 233.601562 269.699219 233.398438 269.898438 233.199219 C 272.199219 231 274.199219 228.5 275.898438 225.898438 L 154.199219 225.898438 C 153.699219 225.898438 153.300781 225.5 153.300781 225 C 153.300781 224.5 153.699219 224.101562 154.199219 224.101562 L 277 224.101562 C 277.5 223.199219 278.101562 222.300781 278.5 221.300781 C 281.398438 215.300781 282 210.5 282.5 205.699219 C 282.800781 202.898438 283.199219 200.101562 284 197.101562 C 286.300781 188.101562 292.300781 179.898438 301.800781 172.5 C 301.5 171.5 301.5 170.5 301.699219 169.5 C 301.898438 168.898438 302.101562 168.300781 302.5 167.800781 L 302.5 16.601562 L 133.101562 16.601562 L 133.101562 180.5 C 133.101562 181 132.699219 181.398438 132.199219 181.398438 C 131.699219 181.398438 131.300781 181 131.300781 180.5 L 131.300781 15.699219 C 131.300781 15.199219 131.699219 14.800781 132.199219 14.800781 L 303.300781 14.800781 C 303.800781 14.800781 304.199219 15.199219 304.199219 15.699219 L 304.199219 165.5 C 306 164.300781 308.5 163.398438 311.300781 162.699219 C 308.101562 159.898438 306.5 156 307.199219 152.398438 C 307.800781 149.300781 310.101562 146.601562 313.5 145 C 314.800781 144.398438 316.101562 144 317.5 143.898438 L 318.800781 1.699219 L 119.800781 1.699219 L 119.800781 131.101562 C 119.800781 131.601562 119.398438 132 118.898438 132 C 118.398438 132 118 131.699219 118 131.199219 Z M 409.5 161 C 409.699219 161 409.800781 161 410 160.898438 C 421 153.898438 430.601562 145.199219 438.5 135 C 445.898438 125.5 451.800781 114.898438 455.800781 103.5 C 456 103 455.699219 102.5 455.300781 102.398438 C 454.800781 102.199219 454.300781 102.5 454.199219 102.898438 C 450.199219 114.101562 444.398438 124.5 437.101562 133.898438 C 429.199219 144 419.800781 152.601562 409 159.398438 C 408.601562 159.699219 408.5 160.199219 408.699219 160.601562 C 408.898438 160.898438 409.199219 161 409.5 161 Z M 418.601562 115.398438 C 406.800781 135.601562 390.199219 153.300781 370.699219 166.699219 C 370.5 166.800781 370.398438 166.898438 370.199219 166.898438 C 369.898438 166.898438 369.601562 166.800781 369.5 166.5 C 369.199219 166.101562 369.300781 165.5 369.699219 165.300781 C 389 152.101562 405.398438 134.5 417.101562 114.601562 C 426.101562 99.300781 432.398438 82.601562 435.898438 65.101562 C 436 64.601562 436.5 64.300781 436.898438 64.398438 C 437.398438 64.5 437.699219 65 437.601562 65.398438 C 434 83.101562 427.699219 99.898438 418.601562 115.398438" fill="#663718"/></g></g></svg>