<?xml version="1.0" standalone="no"?>
<svg xmlns:xlink="http://www.w3.org/1999/xlink" id="wave" style="transform:rotate(0deg); transition: 0.3s" viewBox="0 0 1440 490" version="1.1" xmlns="http://www.w3.org/2000/svg"><defs><linearGradient id="sw-gradient-0" x1="0" x2="0" y1="1" y2="0"><stop stop-color="rgba(255, 255, 255, 1)" offset="0%"/><stop stop-color="rgba(255, 255, 255, 1)" offset="100%"/></linearGradient></defs><path style="transform:translate(0, 0px); opacity:1" fill="url(#sw-gradient-0)" d="M0,343L30,343C60,343,120,343,180,285.8C240,229,300,114,360,65.3C420,16,480,33,540,73.5C600,114,660,180,720,204.2C780,229,840,212,900,187.8C960,163,1020,131,1080,130.7C1140,131,1200,163,1260,147C1320,131,1380,65,1440,89.8C1500,114,1560,229,1620,253.2C1680,278,1740,212,1800,179.7C1860,147,1920,147,1980,171.5C2040,196,2100,245,2160,236.8C2220,229,2280,163,2340,163.3C2400,163,2460,229,2520,269.5C2580,310,2640,327,2700,294C2760,261,2820,180,2880,196C2940,212,3000,327,3060,326.7C3120,327,3180,212,3240,171.5C3300,131,3360,163,3420,220.5C3480,278,3540,359,3600,359.3C3660,359,3720,278,3780,236.8C3840,196,3900,196,3960,236.8C4020,278,4080,359,4140,367.5C4200,376,4260,310,4290,277.7L4320,245L4320,490L4290,490C4260,490,4200,490,4140,490C4080,490,4020,490,3960,490C3900,490,3840,490,3780,490C3720,490,3660,490,3600,490C3540,490,3480,490,3420,490C3360,490,3300,490,3240,490C3180,490,3120,490,3060,490C3000,490,2940,490,2880,490C2820,490,2760,490,2700,490C2640,490,2580,490,2520,490C2460,490,2400,490,2340,490C2280,490,2220,490,2160,490C2100,490,2040,490,1980,490C1920,490,1860,490,1800,490C1740,490,1680,490,1620,490C1560,490,1500,490,1440,490C1380,490,1320,490,1260,490C1200,490,1140,490,1080,490C1020,490,960,490,900,490C840,490,780,490,720,490C660,490,600,490,540,490C480,490,420,490,360,490C300,490,240,490,180,490C120,490,60,490,30,490L0,490Z"/></svg>